<svg width="50" height="46" viewBox="0 0 50 46" fill="none" xmlns="http://www.w3.org/2000/svg">
<path d="M45.5333 19.4646C45.7125 20.6187 45.8333 21.7937 45.8333 23C45.8333 35.6562 35.5729 45.9166 22.9167 45.9166C10.2604 45.9166 0 35.6562 0 23C0 10.3437 10.2604 0.083313 22.9167 0.083313C27.8062 0.083313 32.3292 1.62706 36.05 4.2354L33.0875 7.27081C30.1542 5.36873 26.6667 4.24998 22.9167 4.24998C12.5792 4.24998 4.16667 12.6625 4.16667 23C4.16667 33.3375 12.5792 41.75 22.9167 41.75C33.1125 41.75 41.4146 33.5666 41.6458 23.4271L45.5333 19.4646ZM43.55 2.51456L23.9583 22.5958L15.9521 15.0666L9.50417 21.5208L23.9583 35.5L50 8.96456L43.55 2.51456Z" fill="black"/>
</svg>
